<svg width="36" height="9" viewBox="0 0 36 9" fill="none" xmlns="http://www.w3.org/2000/svg">
<g id="Group">
<g id="Group_2">
<path id="Vector" d="M35.2478 6.71074C30.2337 2.99684 24.2834 1.03453 18.0402 1.03453C12.3475 1.03453 6.69189 2.67316 2.48264 5.48484V1.03453C2.48264 0.463477 2.01916 0 1.44811 0C0.877051 0 0.413574 0.463477 0.413574 1.03453V7.54242C0.413574 7.94379 0.645253 8.30894 1.00842 8.47863C1.37146 8.64937 1.80084 8.59453 2.10916 8.33789C6.05463 5.06063 12.0102 3.10336 18.0402 3.10336C23.8364 3.10336 29.3605 4.92609 34.0167 8.3741C34.2019 8.51062 34.417 8.57684 34.6313 8.57684C34.9478 8.57684 35.2602 8.43199 35.463 8.15789C35.8034 7.69863 35.7072 7.05105 35.2478 6.71074Z" fill="#EF2A82"/>
</g>
</g>
</svg>
